<svg xmlns="http://www.w3.org/2000/svg" viewBox="0 0 80 80"><path d="M12 34.173H9.656v4H12V54.44h9.766c.882 3.246 3.847 5.643 7.368 5.643s6.486-2.397 7.369-5.643h19.296c.882 3.246 3.847 5.643 7.368 5.643s6.486-2.397 7.368-5.643H75V34.983l-6.127-12.255H54.439v-7.151H12v8.596H5v4h7v6zm17.134 21.91c-2.009 0-3.643-1.634-3.643-3.643s1.634-3.643 3.643-3.643 3.643 1.634 3.643 3.643-1.634 3.643-3.643 3.643zm34.033 0c-2.009 0-3.643-1.634-3.643-3.643s1.634-3.643 3.643-3.643c2.008 0 3.643 1.634 3.643 3.643s-1.635 3.643-3.643 3.643zm6.597-22.628H62v-6.727h4.4l3.364 6.727zM58 26.728v10.727h13V50.44h-.465c-.882-3.246-3.847-5.643-7.368-5.643s-6.486 2.397-7.369 5.643H54.44V26.728H58zm-42-7.151h34.44V50.44H36.502c-.883-3.246-3.847-5.643-7.369-5.643s-6.486 2.397-7.368 5.643H16V38.173h8.344v-4H16v-6h3.688v-4H16v-4.596zM7 60.423h14.688v4H7z"/></svg>